<svg xmlns="http://www.w3.org/2000/svg" xmlns:xlink="http://www.w3.org/1999/xlink" preserveAspectRatio="xMidYMid" width="24" height="24" viewBox="0 0 24 24">
  <defs>
    <style>
      .cls-1 {
        fill: #1b1b1b;
        fill-rule: evenodd;
      }
    </style>
  </defs>
  <path d="M22.000,24.000 L2.000,24.000 C0.897,24.000 0.000,23.103 0.000,22.000 L0.000,4.000 C0.000,2.897 0.897,2.000 2.000,2.000 L7.000,2.000 L7.000,1.000 C7.000,0.448 7.448,-0.000 8.000,-0.000 C8.552,-0.000 9.000,0.448 9.000,1.000 L9.000,2.000 L15.000,2.000 L15.000,1.000 C15.000,0.448 15.448,-0.000 16.000,-0.000 C16.552,-0.000 17.000,0.448 17.000,1.000 L17.000,2.000 L22.000,2.000 C23.103,2.000 24.000,2.897 24.000,4.000 L24.000,22.000 C24.000,23.103 23.103,24.000 22.000,24.000 ZM17.000,4.000 L17.000,5.000 C17.000,5.552 16.552,6.000 16.000,6.000 C15.448,6.000 15.000,5.552 15.000,5.000 L15.000,4.000 L9.000,4.000 L9.000,5.000 C9.000,5.552 8.552,6.000 8.000,6.000 C7.448,6.000 7.000,5.552 7.000,5.000 L7.000,4.000 L2.000,4.000 L2.000,22.000 L21.997,22.000 L22.000,4.000 L17.000,4.000 ZM19.000,18.000 L17.000,18.000 C16.448,18.000 16.000,17.552 16.000,17.000 L16.000,15.000 C16.000,14.448 16.448,14.000 17.000,14.000 L19.000,14.000 C19.552,14.000 20.000,14.448 20.000,15.000 L20.000,17.000 C20.000,17.552 19.552,18.000 19.000,18.000 ZM19.000,12.000 L17.000,12.000 C16.448,12.000 16.000,11.552 16.000,11.000 L16.000,9.000 C16.000,8.448 16.448,8.000 17.000,8.000 L19.000,8.000 C19.552,8.000 20.000,8.448 20.000,9.000 L20.000,11.000 C20.000,11.552 19.552,12.000 19.000,12.000 ZM13.000,18.000 L11.000,18.000 C10.448,18.000 10.000,17.552 10.000,17.000 L10.000,15.000 C10.000,14.448 10.448,14.000 11.000,14.000 L13.000,14.000 C13.552,14.000 14.000,14.448 14.000,15.000 L14.000,17.000 C14.000,17.552 13.552,18.000 13.000,18.000 ZM13.000,12.000 L11.000,12.000 C10.448,12.000 10.000,11.552 10.000,11.000 L10.000,9.000 C10.000,8.448 10.448,8.000 11.000,8.000 L13.000,8.000 C13.552,8.000 14.000,8.448 14.000,9.000 L14.000,11.000 C14.000,11.552 13.552,12.000 13.000,12.000 ZM7.000,18.000 L5.000,18.000 C4.448,18.000 4.000,17.552 4.000,17.000 L4.000,15.000 C4.000,14.448 4.448,14.000 5.000,14.000 L7.000,14.000 C7.552,14.000 8.000,14.448 8.000,15.000 L8.000,17.000 C8.000,17.552 7.552,18.000 7.000,18.000 ZM7.000,12.000 L5.000,12.000 C4.448,12.000 4.000,11.552 4.000,11.000 L4.000,9.000 C4.000,8.448 4.448,8.000 5.000,8.000 L7.000,8.000 C7.552,8.000 8.000,8.448 8.000,9.000 L8.000,11.000 C8.000,11.552 7.552,12.000 7.000,12.000 Z" class="cls-1"/>
</svg>
