<svg xmlns="http://www.w3.org/2000/svg" xmlns:xlink="http://www.w3.org/1999/xlink" preserveAspectRatio="xMidYMid" width="24" height="22.875" viewBox="0 0 24 22.875">
  <defs>
    <style>
      .cls-1 {
        fill: #1b1b1b;
        fill-rule: evenodd;
      }
    </style>
  </defs>
  <path d="M24.000,12.177 C24.000,13.976 23.577,15.753 22.850,17.381 C22.832,17.442 22.828,17.504 22.797,17.562 C22.784,17.588 22.755,17.598 22.740,17.623 C21.763,19.698 20.274,21.508 18.401,22.720 C17.938,23.019 17.319,22.889 17.017,22.430 C16.716,21.970 16.847,21.353 17.310,21.054 C18.651,20.186 19.760,18.952 20.563,17.522 L19.509,16.974 C19.020,16.719 18.831,16.119 19.086,15.632 C19.343,15.146 19.947,14.956 20.436,15.212 L21.368,15.697 C21.674,14.807 21.882,13.881 21.951,12.936 L21.000,12.936 C20.448,12.936 20.000,12.492 20.000,11.942 C20.000,11.392 20.448,10.947 21.000,10.947 L21.919,10.947 C21.789,9.858 21.474,8.829 21.033,7.873 L20.281,8.305 C20.124,8.395 19.952,8.438 19.782,8.438 C19.437,8.438 19.101,8.259 18.915,7.941 C18.639,7.465 18.803,6.857 19.281,6.582 L20.039,6.147 C19.339,5.180 18.469,4.354 17.484,3.690 L17.054,4.483 C16.873,4.816 16.529,5.006 16.173,5.006 C16.013,5.006 15.850,4.968 15.699,4.886 C15.213,4.625 15.032,4.022 15.294,3.539 L15.725,2.746 C14.867,2.392 13.955,2.145 12.998,2.048 L12.998,2.991 C12.998,3.541 12.550,3.986 11.998,3.986 C11.446,3.986 10.998,3.541 10.998,2.991 L10.998,2.048 C9.894,2.161 8.848,2.468 7.879,2.918 L8.340,3.701 C8.619,4.175 8.458,4.784 7.981,5.062 C7.823,5.154 7.649,5.198 7.478,5.198 C7.134,5.198 6.799,5.022 6.613,4.705 L6.161,3.936 C5.327,4.550 4.591,5.292 3.977,6.132 L4.760,6.582 C5.238,6.857 5.402,7.465 5.125,7.941 C4.940,8.260 4.605,8.438 4.259,8.438 C4.089,8.438 3.917,8.395 3.760,8.305 L2.965,7.848 C2.517,8.808 2.212,9.850 2.081,10.947 L3.000,10.947 C3.552,10.947 4.000,11.392 4.000,11.942 C4.000,12.492 3.552,12.936 3.000,12.936 L2.048,12.936 C2.128,14.035 2.391,15.109 2.785,16.122 L3.714,15.582 C4.192,15.305 4.804,15.465 5.082,15.938 C5.361,16.412 5.200,17.021 4.724,17.299 L3.673,17.910 C4.457,19.177 5.480,20.271 6.706,21.049 C7.171,21.344 7.308,21.959 7.011,22.422 C6.820,22.719 6.497,22.882 6.167,22.882 C5.983,22.882 5.797,22.831 5.630,22.725 C3.839,21.589 2.407,19.959 1.432,18.062 C1.432,18.062 1.432,18.062 1.432,18.061 C1.431,18.061 1.432,18.061 1.431,18.061 C0.515,16.279 0.000,14.261 0.000,12.177 C0.000,12.113 0.008,12.052 0.009,11.988 C0.009,11.972 0.000,11.958 0.000,11.942 C0.000,11.915 0.013,11.892 0.016,11.865 C0.124,7.549 2.462,3.795 5.896,1.721 C5.925,1.700 5.944,1.669 5.976,1.651 C6.002,1.635 6.032,1.635 6.059,1.622 C7.812,0.602 9.835,0.008 11.997,0.008 C11.998,0.008 11.998,0.008 11.998,0.008 C11.998,0.008 11.998,0.008 11.998,0.008 C11.999,0.008 11.999,0.008 12.000,0.008 C13.955,0.008 15.787,0.506 17.416,1.353 C17.473,1.371 17.533,1.375 17.588,1.405 C17.630,1.428 17.656,1.465 17.694,1.493 C19.564,2.527 21.142,4.041 22.245,5.886 C22.271,5.920 22.307,5.943 22.329,5.981 C22.346,6.009 22.346,6.041 22.359,6.070 C23.343,7.783 23.931,9.757 23.984,11.865 C23.987,11.892 24.000,11.915 24.000,11.942 C24.000,11.958 23.991,11.972 23.991,11.988 C23.992,12.052 24.000,12.113 24.000,12.177 ZM12.000,9.953 C12.350,9.953 12.675,10.051 12.961,10.209 L16.485,8.106 C16.959,7.824 17.573,7.975 17.857,8.447 C18.142,8.918 17.988,9.528 17.515,9.811 L13.997,11.910 C13.997,11.921 14.000,11.931 14.000,11.942 C14.000,13.038 13.103,13.931 12.000,13.931 C10.897,13.931 10.000,13.038 10.000,11.942 C10.000,10.845 10.897,9.953 12.000,9.953 Z" class="cls-1"/>
</svg>
