<svg xmlns="http://www.w3.org/2000/svg" xmlns:xlink="http://www.w3.org/1999/xlink" preserveAspectRatio="xMidYMid" width="23.844" height="20" viewBox="0 0 23.844 20">
  <defs>
    <style>
      .cls-1 {
        fill: #1b1b1b;
        fill-rule: evenodd;
      }
    </style>
  </defs>
  <path d="M21.853,20.000 L1.999,20.000 C0.905,20.000 0.014,19.103 0.014,18.000 L0.014,10.000 C0.014,9.962 0.032,9.929 0.036,9.892 C0.040,9.855 0.030,9.820 0.038,9.783 L2.023,0.783 C2.124,0.326 2.527,-0.000 2.992,-0.000 L20.860,-0.000 C21.326,-0.000 21.728,0.326 21.830,0.783 L23.815,9.783 C23.823,9.821 23.813,9.857 23.817,9.894 C23.821,9.931 23.838,9.963 23.838,10.000 L23.838,18.000 C23.838,19.103 22.947,20.000 21.853,20.000 ZM20.064,2.000 L3.788,2.000 L2.244,9.000 L7.956,9.000 C8.504,9.000 8.948,9.448 8.948,10.000 C8.948,11.654 10.284,13.000 11.926,13.000 C13.568,13.000 14.904,11.654 14.904,10.000 C14.904,9.448 15.348,9.000 15.897,9.000 L21.608,9.000 L20.064,2.000 ZM21.938,11.000 L16.789,11.000 C16.328,13.279 14.323,15.000 11.926,15.000 C9.530,15.000 7.524,13.279 7.063,11.000 L1.938,11.000 L1.938,18.000 L21.938,18.000 L21.938,11.000 Z" class="cls-1"/>
</svg>
