<svg xmlns="http://www.w3.org/2000/svg" xmlns:xlink="http://www.w3.org/1999/xlink" preserveAspectRatio="xMidYMid" width="24" height="23.906" viewBox="0 0 24 23.906">
  <defs>
    <style>
      .cls-1 {
        fill: #1b1b1b;
        fill-rule: evenodd;
      }
    </style>
  </defs>
  <path d="M20.895,23.907 L3.066,23.907 C1.428,23.907 0.000,22.555 0.000,20.906 L0.000,10.906 C0.000,10.557 0.226,10.282 0.523,10.117 L11.314,0.245 C11.692,-0.100 12.269,-0.100 12.647,0.245 L23.420,10.100 C23.744,10.262 24.000,10.546 24.000,10.906 L24.000,20.906 C24.000,22.555 22.533,23.907 20.895,23.907 ZM22.000,20.719 L22.000,12.941 L17.245,16.800 L22.000,20.719 ZM20.322,21.913 L11.981,15.038 L3.639,21.913 L20.322,21.913 ZM2.000,20.687 L6.716,16.800 L2.000,12.972 L2.000,20.687 ZM11.981,2.330 L2.607,10.904 L8.282,15.510 L10.966,13.297 C11.548,12.827 12.413,12.827 12.988,13.291 L15.680,15.510 L21.354,10.904 L11.981,2.330 Z" class="cls-1"/>
</svg>
