<svg xmlns="http://www.w3.org/2000/svg" xmlns:xlink="http://www.w3.org/1999/xlink" preserveAspectRatio="xMidYMid" width="23.813" height="23.906" viewBox="0 0 23.813 23.906">
  <defs>
    <style>
      .cls-1 {
        fill: #1b1b1b;
        fill-rule: evenodd;
      }
    </style>
  </defs>
  <path d="M20.830,23.908 L3.001,23.908 C1.363,23.908 0.030,22.567 0.030,20.918 L0.030,10.951 C0.030,10.943 0.034,10.936 0.034,10.928 C0.035,10.892 0.048,10.858 0.055,10.823 C0.065,10.750 0.076,10.681 0.102,10.611 C0.106,10.590 0.108,10.568 0.117,10.549 C0.134,10.510 0.164,10.476 0.190,10.440 C0.213,10.403 0.221,10.360 0.249,10.325 C0.266,10.304 0.290,10.295 0.308,10.276 C0.320,10.262 0.327,10.245 0.340,10.233 C0.346,10.227 0.348,10.219 0.354,10.214 L3.992,6.886 L3.992,3.974 C3.992,3.424 4.435,2.977 4.982,2.977 L8.264,2.977 L11.249,0.247 C11.627,-0.098 12.204,-0.098 12.581,0.247 L15.502,2.918 C15.521,2.935 15.528,2.959 15.545,2.977 L18.849,2.977 C19.396,2.977 19.839,3.424 19.839,3.974 L19.839,6.886 L23.477,10.213 C23.483,10.219 23.485,10.227 23.491,10.233 C23.505,10.246 23.512,10.263 23.523,10.277 C23.541,10.296 23.565,10.305 23.582,10.325 C23.609,10.360 23.618,10.402 23.641,10.439 C23.667,10.475 23.696,10.509 23.714,10.549 C23.722,10.568 23.724,10.590 23.729,10.610 C23.754,10.680 23.766,10.750 23.775,10.823 C23.783,10.858 23.796,10.892 23.796,10.928 C23.797,10.936 23.801,10.943 23.801,10.951 L23.801,20.918 C23.801,22.567 22.468,23.908 20.830,23.908 ZM20.257,21.915 L11.915,15.039 L3.574,21.915 L20.257,21.915 ZM1.938,20.686 L6.651,16.802 L1.938,12.977 L1.938,20.686 ZM2.542,10.906 L3.992,12.082 L3.992,9.580 L2.542,10.906 ZM11.915,2.332 L11.210,2.977 L12.621,2.977 L11.915,2.332 ZM5.938,4.906 L5.938,13.662 L8.216,15.511 L10.901,13.299 C11.483,12.829 12.348,12.830 12.921,13.291 L15.615,15.511 L17.938,13.626 L17.938,7.708 C17.837,7.465 17.838,7.194 17.938,6.949 L17.938,4.906 L5.938,4.906 ZM19.839,9.581 L19.839,12.082 L21.288,10.906 L19.839,9.581 ZM21.938,12.940 L17.180,16.802 L21.938,20.724 L21.938,12.940 Z" class="cls-1"/>
</svg>
