<svg xmlns="http://www.w3.org/2000/svg" xmlns:xlink="http://www.w3.org/1999/xlink" preserveAspectRatio="xMidYMid" width="23.906" height="21.906" viewBox="0 0 23.906 21.906">
  <defs>
    <style>
      .cls-1 {
        fill: #1b1b1b;
        fill-rule: evenodd;
      }
    </style>
  </defs>
  <path d="M23.608,5.673 L19.623,9.657 C19.428,9.851 19.173,9.948 18.918,9.948 C18.663,9.948 18.408,9.851 18.214,9.657 C17.825,9.268 17.825,8.637 18.214,8.248 L20.557,5.906 L16.000,5.906 C11.679,5.906 7.959,9.523 7.959,13.733 C7.959,14.283 7.514,14.729 6.963,14.729 C6.412,14.729 5.967,14.283 5.967,13.733 C5.967,8.351 10.436,3.973 15.929,3.973 L20.498,3.973 L18.214,1.689 C17.825,1.300 17.825,0.670 18.214,0.281 C18.603,-0.108 19.233,-0.108 19.623,0.281 L23.608,4.265 C23.997,4.654 23.997,5.284 23.608,5.673 ZM6.000,5.906 L2.000,5.906 L1.982,19.908 L20.000,19.906 L20.000,12.906 C20.000,12.356 20.360,11.940 20.911,11.940 C21.461,11.940 22.000,12.356 22.000,12.906 L22.000,19.906 C22.000,21.004 21.013,21.900 19.914,21.900 L1.982,21.900 C0.883,21.900 -0.011,21.006 -0.011,19.908 L-0.011,5.965 C-0.011,4.867 0.883,3.973 1.982,3.973 L5.967,3.973 C6.517,3.973 6.963,4.418 6.963,4.969 C6.963,5.519 6.551,5.906 6.000,5.906 Z" class="cls-1"/>
</svg>
