<svg xmlns="http://www.w3.org/2000/svg" xmlns:xlink="http://www.w3.org/1999/xlink" preserveAspectRatio="xMidYMid" width="23.844" height="23.906" viewBox="0 0 23.844 23.906">
  <defs>
    <style>
      .cls-1 {
        fill: #1b1b1b;
        fill-rule: evenodd;
      }
    </style>
  </defs>
  <path d="M23.755,23.290 C23.655,23.534 23.461,23.728 23.218,23.829 C23.097,23.879 22.968,23.906 22.839,23.906 L17.876,23.906 C17.328,23.906 16.884,23.460 16.884,22.910 C16.884,22.359 17.328,21.913 17.876,21.913 L20.443,21.913 L14.197,15.644 C13.809,15.255 13.809,14.624 14.197,14.235 C14.585,13.846 15.213,13.846 15.600,14.235 L21.847,20.505 L21.847,17.928 C21.847,17.378 22.290,16.932 22.839,16.932 C23.388,16.932 23.832,17.378 23.832,17.928 L23.832,22.909 C23.832,23.039 23.805,23.168 23.755,23.290 ZM22.839,6.970 C22.290,6.970 21.847,6.523 21.847,5.973 L21.847,3.397 L15.600,9.666 C15.407,9.861 15.153,9.958 14.899,9.958 C14.645,9.958 14.391,9.861 14.197,9.666 C13.809,9.277 13.809,8.647 14.197,8.258 L20.443,1.988 L17.876,1.988 C17.328,1.988 16.884,1.542 16.884,0.992 C16.884,0.442 17.328,-0.004 17.876,-0.004 L22.839,-0.004 C22.968,-0.004 23.097,0.022 23.218,0.073 C23.461,0.174 23.655,0.368 23.755,0.611 C23.805,0.733 23.832,0.862 23.832,0.992 L23.832,5.973 C23.832,6.523 23.388,6.970 22.839,6.970 ZM3.399,21.913 L5.966,21.913 C6.514,21.913 6.958,22.359 6.958,22.910 C6.958,23.460 6.514,23.906 5.966,23.906 L1.003,23.906 C0.874,23.906 0.745,23.879 0.624,23.829 C0.381,23.728 0.188,23.534 0.087,23.290 C0.037,23.168 0.011,23.039 0.011,22.910 L0.011,17.928 C0.011,17.378 0.455,16.932 1.003,16.932 C1.552,16.932 1.996,17.378 1.996,17.928 L1.996,20.505 L8.242,14.235 C8.629,13.846 9.258,13.846 9.645,14.235 C10.033,14.624 10.033,15.255 9.645,15.644 L3.399,21.913 ZM8.943,9.958 C8.689,9.958 8.436,9.861 8.242,9.666 L1.996,3.397 L1.996,5.973 C1.996,6.523 1.552,6.970 1.003,6.970 C0.455,6.970 0.011,6.523 0.011,5.973 L0.011,0.992 C0.011,0.862 0.037,0.733 0.087,0.611 C0.188,0.368 0.381,0.174 0.624,0.073 C0.745,0.022 0.874,-0.004 1.003,-0.004 L5.966,-0.004 C6.514,-0.004 6.958,0.442 6.958,0.992 C6.958,1.542 6.514,1.988 5.966,1.988 L3.399,1.988 L9.645,8.258 C10.033,8.647 10.033,9.277 9.645,9.666 C9.451,9.861 9.197,9.958 8.943,9.958 Z" class="cls-1"/>
</svg>
