<svg xmlns="http://www.w3.org/2000/svg" xmlns:xlink="http://www.w3.org/1999/xlink" preserveAspectRatio="xMidYMid" width="24" height="14" viewBox="0 0 24 14">
  <defs>
    <style>
      .cls-1 {
        fill: #1b1b1b;
        fill-rule: evenodd;
      }
    </style>
  </defs>
  <path d="M22.000,4.000 C21.771,4.000 21.554,3.953 21.348,3.882 L16.909,7.435 C16.962,7.615 17.000,7.802 17.000,8.000 C17.000,9.103 16.103,10.000 15.000,10.000 C13.897,10.000 13.000,9.103 13.000,8.000 C13.000,7.989 13.003,7.980 13.003,7.969 L9.438,6.384 C9.074,6.762 8.565,7.000 8.000,7.000 C7.905,7.000 7.815,6.985 7.724,6.972 L3.857,11.268 C3.947,11.495 4.000,11.741 4.000,11.999 C4.000,13.102 3.103,14.000 2.000,14.000 C0.897,14.000 0.000,13.102 0.000,11.999 C0.000,10.897 0.897,10.000 2.000,10.000 C2.097,10.000 2.189,10.015 2.282,10.029 L6.145,5.737 C6.054,5.509 6.000,5.261 6.000,5.000 C6.000,3.897 6.897,3.000 8.000,3.000 C8.893,3.000 9.642,3.592 9.898,4.401 L14.055,6.248 C14.338,6.095 14.656,6.000 15.000,6.000 C15.150,6.000 15.295,6.020 15.436,6.051 L20.037,2.369 C20.015,2.249 20.000,2.126 20.000,2.000 C20.000,0.897 20.897,0.000 22.000,0.000 C23.103,0.000 24.000,0.897 24.000,2.000 C24.000,3.103 23.103,4.000 22.000,4.000 Z" class="cls-1"/>
</svg>
