<svg xmlns="http://www.w3.org/2000/svg" xmlns:xlink="http://www.w3.org/1999/xlink" preserveAspectRatio="xMidYMid" width="23.812" height="23.875" viewBox="0 0 23.812 23.875">
  <defs>
    <style>
      .cls-1 {
        fill: #1b1b1b;
        fill-rule: evenodd;
      }
    </style>
  </defs>
  <path d="M23.477,13.650 C23.286,13.825 23.046,13.912 22.807,13.912 C22.538,13.912 22.271,13.804 22.075,13.589 L21.815,13.303 L21.815,21.885 C21.815,22.984 20.925,23.878 19.832,23.878 L15.865,23.878 C15.318,23.878 14.874,23.432 14.874,22.881 C14.874,22.825 14.897,22.775 14.906,22.721 L14.906,15.875 L8.924,15.905 L8.924,22.881 C8.924,23.432 8.480,23.878 7.933,23.878 L3.966,23.878 C2.873,23.878 1.983,22.984 1.983,21.885 L1.983,13.303 L1.723,13.589 C1.353,13.994 0.725,14.022 0.322,13.650 C-0.082,13.278 -0.109,12.648 0.261,12.242 L11.168,0.283 C11.544,-0.129 12.254,-0.129 12.630,0.283 L23.537,12.242 C23.907,12.648 23.880,13.278 23.477,13.650 ZM19.906,11.210 L11.899,2.431 L3.906,11.195 L3.906,21.875 L6.941,21.882 L6.941,15.905 C6.941,14.806 7.831,13.912 8.924,13.912 L14.874,13.912 C15.968,13.912 16.857,14.806 16.857,15.905 L16.857,21.882 L19.906,21.875 L19.906,11.210 Z" class="cls-1"/>
</svg>
