<svg xmlns="http://www.w3.org/2000/svg" xmlns:xlink="http://www.w3.org/1999/xlink" preserveAspectRatio="xMidYMid" width="23.906" height="24" viewBox="0 0 23.906 24">
  <defs>
    <style>
      .cls-1 {
        fill: #1b1b1b;
        fill-rule: evenodd;
      }
    </style>
  </defs>
  <path d="M21.911,24.000 L9.950,24.000 C8.852,24.000 7.959,23.103 7.959,22.000 L7.959,17.000 C7.959,16.448 8.404,16.000 8.954,16.000 C9.505,16.000 9.950,16.448 9.950,17.000 L9.950,22.000 L21.911,22.000 L21.911,2.000 L9.950,2.000 L9.950,7.000 C9.950,7.552 9.505,8.000 8.954,8.000 C8.404,8.000 7.959,7.552 7.959,7.000 L7.959,2.000 C7.959,0.897 8.852,-0.000 9.950,-0.000 L21.911,-0.000 C23.009,-0.000 23.902,0.897 23.902,2.000 L23.902,22.000 C23.902,23.103 23.009,24.000 21.911,24.000 ZM3.391,11.000 L16.921,11.000 C17.472,11.000 17.917,11.448 17.917,12.000 C17.917,12.552 17.472,13.000 16.921,13.000 L3.391,13.000 L5.675,15.293 C6.064,15.684 6.064,16.316 5.675,16.707 C5.481,16.902 5.226,17.000 4.971,17.000 C4.716,17.000 4.461,16.902 4.267,16.707 L0.284,12.708 C0.192,12.615 0.119,12.505 0.068,12.382 C0.019,12.262 -0.006,12.135 -0.007,12.007 C-0.007,12.004 -0.009,12.002 -0.009,12.000 C-0.009,11.998 -0.007,11.996 -0.007,11.994 C-0.007,11.866 0.019,11.738 0.068,11.618 C0.119,11.495 0.192,11.385 0.284,11.292 L4.267,7.293 C4.656,6.902 5.286,6.902 5.675,7.293 C6.064,7.684 6.064,8.316 5.675,8.707 L3.391,11.000 Z" class="cls-1"/>
</svg>
