<svg xmlns="http://www.w3.org/2000/svg" xmlns:xlink="http://www.w3.org/1999/xlink" preserveAspectRatio="xMidYMid" width="24" height="20" viewBox="0 0 24 20">
  <defs>
    <style>
      .cls-1 {
        fill: #1b1b1b;
        fill-rule: evenodd;
      }
    </style>
  </defs>
  <path d="M22.000,16.000 L13.000,16.000 L13.000,18.000 L16.035,18.000 C16.588,18.000 17.035,18.448 17.035,19.000 C17.035,19.552 16.588,20.000 16.035,20.000 L8.035,20.000 C7.482,20.000 7.035,19.552 7.035,19.000 C7.035,18.448 7.482,18.000 8.035,18.000 L11.000,18.000 L11.000,16.000 L2.000,16.000 C0.898,16.000 0.000,15.103 0.000,14.000 L0.000,2.000 C0.000,0.897 0.898,0.000 2.000,0.000 L22.000,0.000 C23.102,0.000 24.000,0.897 24.000,2.000 L24.000,14.000 C24.000,15.103 23.102,16.000 22.000,16.000 ZM2.000,2.000 L2.000,14.000 L21.997,14.000 L22.000,2.000 L2.000,2.000 Z" class="cls-1"/>
</svg>
