<svg xmlns="http://www.w3.org/2000/svg" xmlns:xlink="http://www.w3.org/1999/xlink" preserveAspectRatio="xMidYMid" width="23.781" height="23.781" viewBox="0 0 23.781 23.781">
  <defs>
    <style>
      .cls-1 {
        fill: #1b1b1b;
        fill-rule: evenodd;
      }
    </style>
  </defs>
  <path d="M23.746,4.121 C23.739,4.166 23.716,4.202 23.704,4.245 C23.689,4.298 23.675,4.349 23.651,4.399 C23.617,4.471 23.572,4.533 23.522,4.593 C23.500,4.621 23.490,4.654 23.465,4.680 L13.555,14.584 C13.538,14.601 13.515,14.607 13.498,14.622 C13.448,14.666 13.393,14.697 13.334,14.731 C13.275,14.764 13.218,14.796 13.155,14.816 C13.133,14.823 13.117,14.839 13.094,14.845 L9.129,15.836 C9.050,15.856 8.969,15.866 8.889,15.866 C8.630,15.866 8.376,15.764 8.188,15.576 C7.942,15.330 7.843,14.973 7.927,14.635 L8.918,10.672 C8.924,10.649 8.940,10.633 8.948,10.611 C8.968,10.548 9.000,10.491 9.033,10.432 C9.066,10.374 9.098,10.319 9.141,10.270 C9.156,10.252 9.162,10.229 9.179,10.212 L19.090,0.308 C19.119,0.279 19.156,0.268 19.187,0.244 C19.240,0.202 19.292,0.164 19.354,0.133 C19.415,0.102 19.477,0.083 19.543,0.066 C19.580,0.056 19.611,0.033 19.650,0.028 C19.860,-0.004 21.729,-0.229 22.872,0.993 C23.987,2.182 23.774,3.926 23.746,4.121 ZM21.424,2.346 C21.143,2.046 20.597,1.975 20.226,1.974 L10.775,11.419 L10.251,13.514 L12.347,12.990 L21.797,3.546 C21.793,3.188 21.721,2.663 21.424,2.346 ZM12.000,3.812 L2.000,3.812 L1.951,21.809 L20.000,21.812 L20.000,11.812 C20.000,11.265 20.452,10.812 21.000,10.812 C21.548,10.812 22.000,11.265 22.000,11.812 L22.000,22.812 C22.000,23.359 21.330,23.790 20.782,23.790 L0.960,23.790 C0.413,23.790 0.000,23.359 0.000,22.812 L0.000,2.812 C0.000,2.265 0.453,1.812 1.000,1.812 L12.000,1.812 C12.547,1.812 13.000,2.265 13.000,2.812 C13.000,3.359 12.547,3.812 12.000,3.812 Z" class="cls-1"/>
</svg>
