<svg xmlns="http://www.w3.org/2000/svg" xmlns:xlink="http://www.w3.org/1999/xlink" preserveAspectRatio="xMidYMid" width="21" height="24" viewBox="0 0 21 24">
  <defs>
    <style>
      .cls-1 {
        fill: #1b1b1b;
        fill-rule: evenodd;
      }
    </style>
  </defs>
  <path d="M18.000,24.000 L3.158,24.000 C3.130,24.000 3.107,23.986 3.079,23.984 C3.052,23.986 3.028,24.000 3.000,24.000 C2.447,24.000 2.000,23.552 2.000,23.000 L2.000,19.000 L1.000,19.000 C0.447,19.000 0.000,18.552 0.000,18.000 C0.000,17.448 0.447,17.000 1.000,17.000 L2.000,17.000 L2.000,13.000 L1.000,13.000 C0.447,13.000 0.000,12.552 0.000,12.000 C0.000,11.448 0.447,11.000 1.000,11.000 L2.000,11.000 L2.000,7.000 L1.000,7.000 C0.447,7.000 0.000,6.552 0.000,6.000 C0.000,5.448 0.447,5.000 1.000,5.000 L2.000,5.000 L2.000,1.000 C2.000,0.448 2.447,-0.000 3.000,-0.000 C3.028,-0.000 3.052,0.014 3.079,0.016 C3.107,0.014 3.130,-0.000 3.158,-0.000 L18.000,-0.000 C19.654,-0.000 21.000,1.346 21.000,3.000 L21.000,21.000 C21.000,22.654 19.654,24.000 18.000,24.000 ZM4.000,5.000 C4.553,5.000 5.000,5.448 5.000,6.000 C5.000,6.552 4.553,7.000 4.000,7.000 L4.000,11.000 C4.553,11.000 5.000,11.448 5.000,12.000 C5.000,12.552 4.553,13.000 4.000,13.000 L4.000,17.000 C4.553,17.000 5.000,17.448 5.000,18.000 C5.000,18.552 4.553,19.000 4.000,19.000 L4.000,22.000 L15.000,22.000 L15.000,2.000 L4.000,2.000 L4.000,5.000 ZM19.000,3.000 C19.000,2.449 18.552,2.000 18.000,2.000 L17.000,2.000 L17.000,22.000 L18.000,22.000 C18.552,22.000 19.000,21.551 19.000,21.000 L19.000,3.000 Z" class="cls-1"/>
</svg>
