<svg xmlns="http://www.w3.org/2000/svg" xmlns:xlink="http://www.w3.org/1999/xlink" preserveAspectRatio="xMidYMid" width="24" height="24" viewBox="0 0 24 24">
  <defs>
    <style>
      .cls-1 {
        fill: #1b1b1b;
        fill-rule: evenodd;
      }
    </style>
  </defs>
  <path d="M12.996,24.000 C7.324,24.000 2.617,19.751 2.048,14.115 C1.993,13.565 2.393,13.075 2.942,13.019 C3.499,12.969 3.982,13.365 4.038,13.914 C4.503,18.524 8.354,22.000 12.996,22.000 C17.961,22.000 22.000,17.961 22.000,12.996 C22.000,8.356 18.525,4.505 13.917,4.040 C13.368,3.984 12.967,3.494 13.022,2.944 C13.078,2.395 13.562,1.999 14.118,2.050 C19.752,2.619 24.000,7.325 24.000,12.996 C24.000,19.063 19.064,24.000 12.996,24.000 ZM11.991,10.990 C11.991,11.542 11.543,11.990 10.991,11.990 L1.099,11.990 C1.066,11.994 1.033,11.995 1.000,11.995 C0.448,11.995 0.000,11.552 0.000,11.000 L0.000,10.990 L0.000,10.990 L0.000,10.989 C0.006,4.935 4.936,0.005 10.990,-0.000 C10.991,-0.000 10.991,-0.000 10.991,-0.000 L10.991,-0.000 L10.999,-0.000 L11.000,-0.000 C11.552,-0.000 12.000,0.448 12.000,1.000 C12.000,1.045 11.997,1.089 11.991,1.133 L11.991,10.990 ZM9.991,2.056 C5.835,2.523 2.523,5.834 2.056,9.990 L9.991,9.990 L9.991,2.056 Z" class="cls-1"/>
</svg>
