<svg xmlns="http://www.w3.org/2000/svg" xmlns:xlink="http://www.w3.org/1999/xlink" preserveAspectRatio="xMidYMid" width="24" height="24" viewBox="0 0 24 24">
  <defs>
    <style>
      .cls-1 {
        fill: #1b1b1b;
        fill-rule: evenodd;
      }
    </style>
  </defs>
  <path d="M22.000,20.000 L20.000,20.000 L20.000,23.000 C20.000,23.552 19.553,24.000 19.000,24.000 L5.000,24.000 C4.447,24.000 4.000,23.552 4.000,23.000 L4.000,20.000 L2.000,20.000 C0.898,20.000 0.000,19.103 0.000,18.000 L0.000,8.000 C0.000,6.897 0.898,6.000 2.000,6.000 L4.000,6.000 L4.000,1.000 C4.000,0.448 4.447,-0.000 5.000,-0.000 L19.000,-0.000 C19.553,-0.000 20.000,0.448 20.000,1.000 L20.000,6.000 L22.000,6.000 C23.102,6.000 24.000,6.897 24.000,8.000 L24.000,18.000 C24.000,19.103 23.102,20.000 22.000,20.000 ZM6.000,22.000 L18.000,22.000 L18.000,15.000 L6.000,15.000 L6.000,22.000 ZM18.000,2.000 L6.000,2.000 L6.000,6.000 L18.000,6.000 L18.000,2.000 ZM22.000,8.000 L19.000,8.000 L5.000,8.000 L2.000,8.000 L2.000,18.000 L4.000,18.000 L4.000,14.000 C4.000,13.448 4.447,13.000 5.000,13.000 L19.000,13.000 C19.553,13.000 20.000,13.448 20.000,14.000 L20.000,18.000 L22.000,18.000 L22.000,8.000 ZM19.000,11.000 C18.447,11.000 18.000,10.552 18.000,10.000 C18.000,9.448 18.447,9.000 19.000,9.000 L20.000,9.000 C20.553,9.000 21.000,9.448 21.000,10.000 C21.000,10.552 20.553,11.000 20.000,11.000 L19.000,11.000 Z" class="cls-1"/>
</svg>
