<svg xmlns="http://www.w3.org/2000/svg" xmlns:xlink="http://www.w3.org/1999/xlink" preserveAspectRatio="xMidYMid" width="23.906" height="21.906" viewBox="0 0 23.906 21.906">
  <defs>
    <style>
      .cls-1 {
        fill: #1b1b1b;
        fill-rule: evenodd;
      }
    </style>
  </defs>
  <path d="M23.868,3.976 C23.868,4.304 23.743,4.558 23.535,4.721 L20.592,7.667 C20.397,7.861 20.143,7.959 19.888,7.959 C19.634,7.959 19.379,7.861 19.185,7.667 C18.796,7.278 18.796,6.648 19.185,6.259 L20.536,4.906 L18.000,4.906 C17.427,4.906 17.216,5.249 16.885,5.715 L8.593,17.335 C7.889,18.324 6.743,18.914 5.529,18.914 L0.985,18.914 C0.435,18.914 -0.010,18.469 -0.010,17.918 C-0.010,17.368 0.435,16.922 0.985,16.922 L5.529,16.922 C6.101,16.922 6.641,16.644 6.973,16.178 L10.742,10.897 C10.706,10.860 10.658,10.842 10.628,10.799 L6.975,5.662 C6.656,5.236 6.556,4.906 6.000,4.906 L1.000,4.906 C0.451,4.906 -0.010,4.525 -0.010,3.975 C-0.010,3.424 0.435,2.979 0.985,2.979 L5.569,2.979 C6.749,2.979 7.875,3.543 8.582,4.488 L11.943,9.214 L15.265,4.557 C15.969,3.569 17.115,2.979 18.330,2.979 L20.472,2.979 L19.187,1.691 C18.798,1.302 18.798,0.671 19.187,0.283 C19.575,-0.106 20.205,-0.106 20.594,0.283 L23.575,3.270 C23.668,3.362 23.741,3.472 23.791,3.594 C23.842,3.716 23.868,3.846 23.868,3.976 ZM14.855,13.553 L16.867,16.224 C17.197,16.660 17.725,16.922 18.277,16.922 L20.506,16.922 L19.220,15.634 C18.831,15.245 18.831,14.615 19.220,14.226 C19.608,13.837 20.238,13.837 20.627,14.226 L23.611,17.214 C24.000,17.603 24.000,18.233 23.611,18.622 L20.629,21.610 C20.434,21.805 20.180,21.902 19.925,21.902 C19.671,21.902 19.416,21.805 19.222,21.610 C18.833,21.222 18.833,20.591 19.222,20.202 L20.507,18.914 L18.277,18.914 C17.108,18.914 15.986,18.358 15.279,17.425 L13.266,14.751 C12.935,14.313 13.023,13.688 13.462,13.357 C13.901,13.026 14.525,13.115 14.855,13.553 Z" class="cls-1"/>
</svg>
