<svg xmlns="http://www.w3.org/2000/svg" xmlns:xlink="http://www.w3.org/1999/xlink" preserveAspectRatio="xMidYMid" width="23.938" height="23.938" viewBox="0 0 23.938 23.938">
  <defs>
    <style>
      .cls-1 {
        fill: #1b1b1b;
        fill-rule: evenodd;
      }
    </style>
  </defs>
  <path d="M12.961,23.935 C12.924,23.935 12.886,23.933 12.848,23.929 C12.418,23.879 12.069,23.559 11.985,23.134 L10.110,13.751 L0.721,10.933 C0.317,10.811 0.032,10.448 0.012,10.026 C-0.008,9.604 0.240,9.215 0.630,9.055 L22.546,0.082 C22.924,-0.071 23.358,0.019 23.641,0.314 C23.924,0.608 23.999,1.046 23.830,1.418 L13.868,23.351 C13.706,23.709 13.349,23.935 12.961,23.935 ZM3.992,9.833 L11.255,12.014 C11.608,12.120 11.874,12.412 11.946,12.773 L13.332,19.712 L20.978,2.878 L3.992,9.833 Z" class="cls-1"/>
</svg>
