<svg xmlns="http://www.w3.org/2000/svg" xmlns:xlink="http://www.w3.org/1999/xlink" preserveAspectRatio="xMidYMid" width="18" height="24" viewBox="0 0 18 24">
  <defs>
    <style>
      .cls-1 {
        fill: #1b1b1b;
        fill-rule: evenodd;
      }
    </style>
  </defs>
  <path d="M15.000,24.000 L3.000,24.000 C1.346,24.000 0.000,22.654 0.000,21.000 L0.000,3.000 C0.000,1.346 1.346,-0.000 3.000,-0.000 L15.000,-0.000 C16.654,-0.000 18.000,1.346 18.000,3.000 L18.000,21.000 C18.000,22.654 16.654,24.000 15.000,24.000 ZM16.000,3.000 C16.000,2.449 15.552,2.000 15.000,2.000 L3.000,2.000 C2.448,2.000 2.000,2.449 2.000,3.000 L2.000,21.000 C2.000,21.551 2.448,22.000 3.000,22.000 L15.000,22.000 C15.552,22.000 16.000,21.551 16.000,21.000 L16.000,3.000 ZM10.000,5.000 L8.000,5.000 C7.447,5.000 7.000,4.552 7.000,4.000 C7.000,3.448 7.447,3.000 8.000,3.000 L10.000,3.000 C10.553,3.000 11.000,3.448 11.000,4.000 C11.000,4.552 10.553,5.000 10.000,5.000 ZM9.019,18.000 L9.030,18.000 C9.582,18.000 10.030,18.448 10.030,19.000 C10.030,19.552 9.582,20.000 9.030,20.000 C8.478,20.000 8.025,19.552 8.025,19.000 C8.025,18.448 8.468,18.000 9.019,18.000 Z" class="cls-1"/>
</svg>
