<svg xmlns="http://www.w3.org/2000/svg" xmlns:xlink="http://www.w3.org/1999/xlink" preserveAspectRatio="xMidYMid" width="20" height="24" viewBox="0 0 20 24">
  <defs>
    <style>
      .cls-1 {
        fill: #1b1b1b;
        fill-rule: evenodd;
      }
    </style>
  </defs>
  <path d="M19.000,6.000 L17.910,6.000 L16.105,22.118 C15.986,23.173 15.062,24.000 14.000,24.000 L6.000,24.000 C4.937,24.000 4.014,23.172 3.897,22.116 L2.120,6.000 L1.000,6.000 C0.447,6.000 0.000,5.552 0.000,5.000 C0.000,4.448 0.447,4.000 1.000,4.000 L6.000,4.000 L6.000,3.000 C6.000,1.346 7.346,-0.000 9.000,-0.000 L11.000,-0.000 C12.654,-0.000 14.000,1.346 14.000,3.000 L14.000,4.000 L19.000,4.000 C19.553,4.000 20.000,4.448 20.000,5.000 C20.000,5.552 19.553,6.000 19.000,6.000 ZM12.000,3.000 C12.000,2.449 11.552,2.000 11.000,2.000 L9.000,2.000 C8.448,2.000 8.000,2.449 8.000,3.000 L8.000,4.000 L12.000,4.000 L12.000,3.000 ZM4.132,6.000 L5.885,21.896 C5.889,21.935 5.960,22.000 6.000,22.000 L14.000,22.000 C14.040,22.000 14.113,21.935 14.117,21.894 L15.897,6.000 L4.132,6.000 Z" class="cls-1"/>
</svg>
